<?xml version="1.0" encoding="iso-8859-1"?>
<!-- Uploaded to: SVG Repo, www.svgrepo.com, Generator: SVG Repo Mixer Tools -->
<!DOCTYPE svg PUBLIC "-//W3C//DTD SVG 1.1//EN" "http://www.w3.org/Graphics/SVG/1.1/DTD/svg11.dtd">
<svg fill="#000000" version="1.1" id="Capa_1" xmlns="http://www.w3.org/2000/svg" xmlns:xlink="http://www.w3.org/1999/xlink" 
	 width="800px" height="800px" viewBox="0 0 46.295 46.295"
	 xml:space="preserve">
<g>
	<g>
		<path d="M16.633,37.391h-3.629c-1.088,0-1.971,0.896-1.971,1.984c0,1.09,0.883,1.984,1.971,1.984h3.629
			c1.089,0,1.972-0.896,1.972-1.984S17.722,37.391,16.633,37.391z"/>
		<path d="M33.219,37.391h-3.63c-1.089,0-1.972,0.896-1.972,1.984c0,1.09,0.883,1.984,1.972,1.984h3.63
			c1.089,0,1.972-0.896,1.972-1.984S34.308,37.391,33.219,37.391z"/>
		<path d="M16.688,14.558l12.476-0.012c3.295,0,6.08-2.784,6.08-6.079c0-3.272-2.662-5.934-5.935-5.934
			c-0.609,0-1.211,0.094-1.786,0.275C26.29,1.066,24.281,0,22.077,0C19.43,0,17.07,1.562,16,3.912
			c-2.623,0.339-4.656,2.587-4.656,5.301C11.344,12.161,13.741,14.558,16.688,14.558z M16.688,6.827
			c0.077,0,0.153,0.005,0.228,0.012c0.73,0.062,1.38-0.4,1.563-1.098c0.429-1.638,1.909-2.782,3.599-2.782
			c1.522,0,2.876,0.912,3.451,2.323c0.165,0.408,0.506,0.721,0.925,0.853c0.419,0.133,0.878,0.071,1.247-0.168
			c0.481-0.312,1.039-0.476,1.609-0.476c1.642,0,2.977,1.335,2.977,2.977c0,1.634-1.488,3.122-3.123,3.122l-12.476,0.012
			c-1.316,0-2.387-1.071-2.387-2.387C14.301,7.897,15.372,6.827,16.688,6.827z"/>
		<path d="M13.062,22.687c0.32,0.194,0.673,0.287,1.021,0.287c0.666,0,1.317-0.338,1.688-0.949l1.981-3.264
			c0.564-0.931,0.268-2.144-0.663-2.708c-0.93-0.564-2.143-0.269-2.708,0.663L12.4,19.98C11.834,20.91,12.131,22.122,13.062,22.687z
			"/>
		<path d="M29.339,16.052c-0.931,0.565-1.229,1.777-0.663,2.708l1.98,3.264c0.37,0.611,1.021,0.949,1.688,0.949
			c0.349,0,0.702-0.092,1.021-0.287c0.931-0.565,1.227-1.777,0.661-2.708l-1.979-3.264C31.481,15.784,30.27,15.488,29.339,16.052z"
			/>
		<g>
			<path d="M23.31,26.738c-0.006,0-0.027,0-0.033,0c-1.114,0-2.177,0.506-2.921,1.338s-1.096,1.956-0.971,3.062l1.798,13.156
				c0.123,1.096,1.02,1.999,2.11,1.999c1.092,0,1.986-0.897,2.11-1.993l1.798-13.162c0.125-1.108-0.229-2.231-0.972-3.063
				C25.486,27.244,24.425,26.738,23.31,26.738z"/>
			<circle cx="23.293" cy="21.892" r="3.857"/>
		</g>
		<g>
			<path d="M39.644,26.738c-0.006,0-0.026,0-0.033,0c-1.113,0-2.177,0.506-2.921,1.338s-1.096,1.956-0.971,3.062l1.798,13.156
				c0.123,1.096,1.021,1.999,2.11,1.999c1.092,0,1.987-0.897,2.11-1.993l1.798-13.162c0.125-1.108-0.229-2.231-0.972-3.063
				C41.819,27.244,40.759,26.738,39.644,26.738z"/>
			<circle cx="39.626" cy="21.892" r="3.857"/>
		</g>
		<g>
			<path d="M6.685,26.738c-0.006,0-0.027,0-0.033,0c-1.114,0-2.177,0.506-2.921,1.338s-1.096,1.956-0.971,3.062l1.798,13.158
				c0.123,1.096,1.02,1.998,2.11,1.998c1.092,0,1.987-0.896,2.111-1.994l1.797-13.162c0.125-1.107-0.228-2.23-0.971-3.062
				S7.8,26.738,6.685,26.738z"/>
			<circle cx="6.668" cy="21.892" r="3.857"/>
		</g>
	</g>
</g>
</svg>